<svg width="500" height="400" viewBox="0 0 500 400" xmlns="http://www.w3.org/2000/svg">
  <!-- Background elements -->
  <circle cx="250" cy="200" r="150" fill="#0A2D5A" fill-opacity="0.1"/>
  <circle cx="250" cy="200" r="100" fill="#0A2D5A" fill-opacity="0.2"/>
  
  <!-- Central community hub -->
  <circle cx="250" cy="200" r="40" fill="#F0C14B"/>
  <circle cx="250" cy="200" r="35" fill="#F7D47E"/>
  <text x="250" y="205" font-family="Arial" font-size="14" font-weight="bold" text-anchor="middle" fill="#0A2D5A">@BEUhouse</text>
  
  <!-- Community members -->
  <circle cx="150" cy="150" r="25" fill="#0A2D5A"/>
  <circle cx="150" cy="150" r="20" fill="#1E4B8D"/>
  <text x="150" y="155" font-family="Arial" font-size="20" font-weight="bold" text-anchor="middle" fill="white">👤</text>
  
  <circle cx="350" cy="150" r="25" fill="#0A2D5A"/>
  <circle cx="350" cy="150" r="20" fill="#1E4B8D"/>
  <text x="350" y="155" font-family="Arial" font-size="20" font-weight="bold" text-anchor="middle" fill="white">👤</text>
  
  <circle cx="150" cy="250" r="25" fill="#0A2D5A"/>
  <circle cx="150" cy="250" r="20" fill="#1E4B8D"/>
  <text x="150" y="255" font-family="Arial" font-size="20" font-weight="bold" text-anchor="middle" fill="white">👤</text>
  
  <circle cx="350" cy="250" r="25" fill="#0A2D5A"/>
  <circle cx="350" cy="250" r="20" fill="#1E4B8D"/>
  <text x="350" y="255" font-family="Arial" font-size="20" font-weight="bold" text-anchor="middle" fill="white">👤</text>
  
  <circle cx="250" cy="100" r="25" fill="#0A2D5A"/>
  <circle cx="250" cy="100" r="20" fill="#1E4B8D"/>
  <text x="250" y="105" font-family="Arial" font-size="20" font-weight="bold" text-anchor="middle" fill="white">👤</text>
  
  <circle cx="250" cy="300" r="25" fill="#0A2D5A"/>
  <circle cx="250" cy="300" r="20" fill="#1E4B8D"/>
  <text x="250" y="305" font-family="Arial" font-size="20" font-weight="bold" text-anchor="middle" fill="white">👤</text>
  
  <!-- Connection lines -->
  <line x1="250" y1="200" x2="150" y2="150" stroke="#F0C14B" stroke-width="3" stroke-opacity="0.7"/>
  <line x1="250" y1="200" x2="350" y2="150" stroke="#F0C14B" stroke-width="3" stroke-opacity="0.7"/>
  <line x1="250" y1="200" x2="150" y2="250" stroke="#F0C14B" stroke-width="3" stroke-opacity="0.7"/>
  <line x1="250" y1="200" x2="350" y2="250" stroke="#F0C14B" stroke-width="3" stroke-opacity="0.7"/>
  <line x1="250" y1="200" x2="250" y2="100" stroke="#F0C14B" stroke-width="3" stroke-opacity="0.7"/>
  <line x1="250" y1="200" x2="250" y2="300" stroke="#F0C14B" stroke-width="3" stroke-opacity="0.7"/>
  
  <!-- Chat bubbles -->
  <rect x="180" cy="120" width="30" height="20" rx="5" ry="5" fill="#ffffff" fill-opacity="0.8"/>
  <rect x="290" cy="120" width="30" height="20" rx="5" ry="5" fill="#ffffff" fill-opacity="0.8"/>
  <rect x="180" cy="280" width="30" height="20" rx="5" ry="5" fill="#ffffff" fill-opacity="0.8"/>
  <rect x="290" cy="280" width="30" height="20" rx="5" ry="5" fill="#ffffff" fill-opacity="0.8"/>
  
  <!-- Decorative elements -->
  <circle cx="100" cy="100" r="10" fill="#F0C14B" fill-opacity="0.5"/>
  <circle cx="400" cy="100" r="10" fill="#F0C14B" fill-opacity="0.5"/>
  <circle cx="100" cy="300" r="10" fill="#F0C14B" fill-opacity="0.5"/>
  <circle cx="400" cy="300" r="10" fill="#F0C14B" fill-opacity="0.5"/>
</svg>
